<svg fill="#000000" xmlns="http://www.w3.org/2000/svg" viewBox="0 0 50 50" width="100px" height="100px"><path d="M16.5 10.025C11.771 10.287 8 14.207 8 19v16c0 .553.448 1 1 1h16V19C25 14.207 21.229 10.287 16.5 10.025zM19 22h-5c-.552 0-1-.448-1-1s.448-1 1-1h5c.552 0 1 .448 1 1S19.552 22 19 22zM28 38H34V46H28z"/><path d="M39,10H22.305C25.139,11.992,27,15.28,27,19v17h20c0.553,0,1-0.447,1-1V19C48,14.038,43.963,10,39,10z M44,24h-4v-4h-5.277c-0.347,0.595-0.984,1-1.723,1c-1.104,0-2-0.896-2-2s0.896-2,2-2c0.738,0,1.376,0.405,1.723,1H40h1h3V24z"/></svg>